<svg
  xmlns="http://www.w3.org/2000/svg"
  width="1293px" height="782px">
  <path fill-rule="evenodd"  fill="#FEFFDA"
        d="M1278.000,576.000 L1219.000,576.000 C1210.716,576.000 1204.000,569.284 1204.000,561.000 L1204.000,220.1000 C1204.000,212.716 1210.716,205.1000 1219.000,205.1000 L1278.000,205.1000 C1286.284,205.1000 1293.000,212.716 1293.000,220.1000 L1293.000,561.000 C1293.000,569.284 1286.284,576.000 1278.000,576.000 ZM1172.1000,698.000 L1114.000,698.000 C1105.716,698.000 1099.000,691.284 1099.000,682.1000 L1099.000,99.000 C1099.000,90.716 1105.716,83.1000 1114.000,83.1000 L1172.1000,83.1000 C1181.284,83.1000 1187.1000,90.716 1187.1000,99.000 L1187.1000,682.1000 C1187.1000,691.284 1181.284,698.000 1172.1000,698.000 ZM1068.1000,698.000 L1010.000,698.000 C1001.716,698.000 994.1000,691.284 994.1000,682.1000 L994.1000,99.000 C994.1000,90.716 1001.716,83.1000 1010.000,83.1000 L1068.1000,83.1000 C1077.284,83.1000 1083.1000,90.716 1083.1000,99.000 L1083.1000,682.1000 C1083.1000,691.284 1077.284,698.000 1068.1000,698.000 ZM969.000,463.1000 L908.1000,463.1000 C900.716,463.1000 894.000,457.284 894.000,449.000 L894.000,331.1000 C894.000,323.716 900.716,316.1000 908.1000,316.1000 L969.000,316.1000 C977.284,316.1000 984.000,323.716 984.000,331.1000 L984.000,449.000 C984.000,457.284 977.284,463.1000 969.000,463.1000 ZM864.000,463.1000 L562.000,463.1000 L562.000,767.000 C562.000,775.284 555.284,782.000 546.1000,782.000 L430.000,782.000 C421.716,782.000 414.1000,775.284 414.1000,767.000 L414.1000,449.000 L414.1000,331.1000 L414.1000,132.000 L414.1000,14.1000 C414.1000,6.716 421.716,-0.000 430.000,-0.000 L546.1000,-0.000 L864.000,-0.000 C872.284,-0.000 879.000,6.716 879.000,14.1000 L879.000,132.000 C879.000,140.284 872.284,146.1000 864.000,146.1000 L562.000,146.1000 L562.000,316.1000 L864.000,316.1000 C872.284,316.1000 879.000,323.716 879.000,331.1000 L879.000,449.000 C879.000,457.284 872.284,463.1000 864.000,463.1000 ZM384.000,463.1000 L323.1000,463.1000 C315.716,463.1000 308.1000,457.284 308.1000,449.000 L308.1000,331.1000 C308.1000,323.716 315.716,316.1000 323.1000,316.1000 L384.000,316.1000 C392.284,316.1000 398.1000,323.716 398.1000,331.1000 L398.1000,449.000 C398.1000,457.284 392.284,463.1000 384.000,463.1000 ZM282.1000,698.000 L224.000,698.000 C215.716,698.000 209.000,691.284 209.000,682.1000 L209.000,99.000 C209.000,90.716 215.716,83.1000 224.000,83.1000 L282.1000,83.1000 C291.284,83.1000 298.000,90.716 298.000,99.000 L298.000,682.1000 C298.000,691.284 291.284,698.000 282.1000,698.000 ZM178.1000,698.000 L120.000,698.000 C111.716,698.000 105.000,691.284 105.000,682.1000 L105.000,99.000 C105.000,90.716 111.716,83.1000 120.000,83.1000 L178.1000,83.1000 C187.284,83.1000 193.1000,90.716 193.1000,99.000 L193.1000,682.1000 C193.1000,691.284 187.284,698.000 178.1000,698.000 ZM73.1000,576.000 L14.1000,576.000 C6.716,576.000 -0.000,569.284 -0.000,561.000 L-0.000,220.1000 C-0.000,212.716 6.716,205.1000 14.1000,205.1000 L73.1000,205.1000 C82.284,205.1000 88.1000,212.716 88.1000,220.1000 L88.1000,561.000 C88.1000,569.284 82.284,576.000 73.1000,576.000 Z"/>
</svg>
